<?xml version="1.0" encoding="UTF-8"?>
<svg width="96px" height="20px" viewBox="0 0 96 20" version="1.1" xmlns="http://www.w3.org/2000/svg" xmlns:xlink="http://www.w3.org/1999/xlink">
    <!-- Generator: sketchtool 51.2 (57519) - http://www.bohemiancoding.com/sketch -->
    <title>E74BDF57-D5E4-4373-8D8F-9F3AAEDDDA46</title>
    <desc>Created with sketchtool.</desc>
    <defs></defs>
    <g id="Symbols" stroke="none" stroke-width="1" fill="none" fill-rule="evenodd">
        <g id="Logo">
            <g>
                <path d="M1.316,8.501 C1.316,8.853 1.404,9.113 1.58,9.281 C1.756,9.449 1.924,9.533 2.084,9.533 C2.244,9.533 2.388,9.517 2.516,9.485 C3.716,9.101 4.78,8.909 5.708,8.909 C6.796,8.909 7.604,9.137 8.132,9.593 C8.66,10.049 8.924,10.813 8.924,11.885 L8.924,12.077 L6.02,12.077 C4.212,12.077 2.82,12.445 1.844,13.181 C0.948,13.853 0.5,14.781 0.5,15.965 C0.5,17.053 0.884,17.933 1.652,18.605 C2.388,19.245 3.308,19.565 4.412,19.565 C5.532,19.565 6.456,19.373 7.184,18.989 C7.912,18.605 8.492,18.189 8.924,17.741 L8.924,18.365 C8.924,18.669 9.028,18.925 9.236,19.133 C9.444,19.341 9.7,19.445 10.004,19.445 C10.308,19.445 10.568,19.341 10.784,19.133 C11,18.925 11.108,18.669 11.108,18.365 L11.108,11.573 C11.108,10.277 10.708,9.197 9.908,8.333 C9.012,7.341 7.748,6.845 6.116,6.845 C4.676,6.845 3.284,7.133 1.94,7.709 C1.524,7.885 1.316,8.149 1.316,8.501 L1.316,8.501 Z M3.644,14.261 C4.284,13.973 5.172,13.829 6.308,13.829 L8.924,13.829 L8.924,15.845 C8.508,16.309 7.976,16.725 7.328,17.093 C6.68,17.461 5.98,17.645 5.228,17.645 C3.532,17.645 2.684,17.005 2.684,15.725 C2.684,15.037 3.004,14.549 3.644,14.261 L3.644,14.261 Z" id="Fill-1" fill="#3D3D3F"></path>
                <path d="M33.5,16.853 L30.716,7.829 C30.636,7.573 30.488,7.365 30.272,7.205 C30.056,7.045 29.812,6.965 29.54,6.965 C29.268,6.965 29.024,7.045 28.808,7.205 C28.592,7.365 28.444,7.573 28.364,7.829 L25.58,16.853 L22.772,7.613 C22.644,7.181 22.3,6.965 21.74,6.965 C21.468,6.965 21.228,7.069 21.02,7.277 C20.812,7.485 20.708,7.697 20.708,7.913 C20.708,8.129 20.732,8.309 20.78,8.453 L24.188,18.437 C24.284,18.709 24.46,18.945 24.716,19.145 C24.972,19.345 25.26,19.445 25.58,19.445 C25.9,19.445 26.188,19.345 26.444,19.145 C26.7,18.945 26.884,18.701 26.996,18.413 L29.54,10.469 L32.084,18.413 C32.196,18.701 32.38,18.945 32.636,19.145 C32.892,19.345 33.18,19.445 33.5,19.445 C33.82,19.445 34.108,19.345 34.364,19.145 C34.62,18.945 34.796,18.709 34.892,18.437 L38.3,8.453 C38.348,8.309 38.372,8.129 38.372,7.913 C38.372,7.697 38.268,7.485 38.06,7.277 C37.852,7.069 37.612,6.965 37.34,6.965 C36.78,6.965 36.436,7.181 36.308,7.613 L33.5,16.853" id="Fill-2" fill="#3D3D3F"></path>
                <path d="M47.876,8.501 C47.876,8.853 47.964,9.113 48.14,9.281 C48.316,9.449 48.484,9.533 48.644,9.533 C48.804,9.533 48.948,9.517 49.076,9.485 C50.276,9.101 51.34,8.909 52.268,8.909 C53.356,8.909 54.164,9.137 54.692,9.593 C55.22,10.049 55.484,10.813 55.484,11.885 L55.484,12.077 L52.58,12.077 C50.772,12.077 49.38,12.445 48.404,13.181 C47.508,13.853 47.06,14.781 47.06,15.965 C47.06,17.053 47.444,17.933 48.212,18.605 C48.948,19.245 49.868,19.565 50.972,19.565 C52.092,19.565 53.016,19.373 53.744,18.989 C54.472,18.605 55.052,18.189 55.484,17.741 L55.484,18.365 C55.484,18.669 55.588,18.925 55.796,19.133 C56.004,19.341 56.26,19.445 56.564,19.445 C56.868,19.445 57.128,19.341 57.344,19.133 C57.56,18.925 57.668,18.669 57.668,18.365 L57.668,11.573 C57.668,10.277 57.268,9.197 56.468,8.333 C55.572,7.341 54.308,6.845 52.676,6.845 C51.236,6.845 49.844,7.133 48.5,7.709 C48.084,7.885 47.876,8.149 47.876,8.501 L47.876,8.501 Z M50.204,14.261 C50.844,13.973 51.732,13.829 52.868,13.829 L55.484,13.829 L55.484,15.845 C55.068,16.309 54.536,16.725 53.888,17.093 C53.24,17.461 52.54,17.645 51.788,17.645 C50.092,17.645 49.244,17.005 49.244,15.725 C49.244,15.037 49.564,14.549 50.204,14.261 L50.204,14.261 Z" id="Fill-3" fill="#3D3D3F"></path>
                <path d="M70.748,8.069 C70.748,7.765 70.64,7.505 70.424,7.289 C70.208,7.073 69.947,6.965 69.644,6.965 C69.34,6.965 69.084,7.073 68.876,7.289 C68.668,7.505 68.564,7.765 68.564,8.069 L68.564,18.365 C68.564,18.669 68.668,18.925 68.876,19.133 C69.084,19.341 69.34,19.445 69.644,19.445 C69.947,19.445 70.208,19.341 70.424,19.133 C70.64,18.925 70.748,18.669 70.748,18.365 L70.748,11.069 C71.164,10.445 71.688,9.937 72.32,9.545 C72.952,9.153 73.667,8.957 74.468,8.957 L74.588,8.957 C74.908,8.957 75.172,8.865 75.38,8.681 C75.588,8.497 75.692,8.249 75.692,7.937 C75.692,7.625 75.592,7.365 75.392,7.157 C75.191,6.949 74.939,6.845 74.636,6.845 L74.516,6.845 C73.124,6.845 71.868,7.597 70.748,9.101 L70.748,8.069" id="Fill-4" fill="#3D3D3F"></path>
                <path d="M86.54,13.973 L94.676,13.973 C95.012,13.973 95.279,13.869 95.48,13.661 C95.679,13.453 95.78,13.197 95.78,12.893 C95.78,11.213 95.291,9.805 94.316,8.669 C93.275,7.453 91.859,6.845 90.067,6.845 C88.179,6.845 86.723,7.501 85.7,8.813 C84.788,9.981 84.332,11.445 84.332,13.205 C84.332,15.237 84.875,16.805 85.964,17.909 C87.051,19.013 88.58,19.565 90.548,19.565 C91.491,19.565 92.324,19.461 93.044,19.253 C93.363,19.157 93.659,19.045 93.932,18.917 C94.203,18.789 94.511,18.633 94.856,18.449 C95.199,18.265 95.372,17.965 95.372,17.549 C95.372,17.325 95.276,17.125 95.084,16.949 C94.892,16.773 94.691,16.685 94.484,16.685 C94.275,16.685 94.027,16.757 93.74,16.901 C92.908,17.317 91.876,17.525 90.644,17.525 C89.411,17.525 88.451,17.205 87.764,16.565 C87.076,15.925 86.668,15.061 86.54,13.973 L86.54,13.973 Z M92.372,9.509 C93.14,10.165 93.555,11.061 93.62,12.197 L86.54,12.197 C86.572,11.573 86.708,11.037 86.948,10.589 C87.604,9.325 88.643,8.693 90.067,8.693 C90.964,8.693 91.731,8.965 92.372,9.509 L92.372,9.509 Z" id="Fill-5" fill="#3D3D3F"></path>
                <path d="M29.588,0.325 C30.693,0.325 31.588,1.22 31.588,2.325 C31.588,3.43 30.693,4.325 29.588,4.325 C28.484,4.325 27.588,3.43 27.588,2.325 C27.588,1.22 28.484,0.325 29.588,0.325" id="Fill-6" fill="#FF7F24" fill-rule="nonzero"></path>
            </g>
        </g>
    </g>
</svg>